<svg width="317" height="188" viewBox="0 0 317 188" fill="none" xmlns="http://www.w3.org/2000/svg">
<path d="M189.31 26.0207V18.0182C177.564 18.0182 169.419 17.1043 159.614 18.0487C147.718 6.40101 132.389 1.52588e-05 116.064 1.52588e-05C99.5899 1.52588e-05 83.912 6.61089 71.967 18.6259C69.0305 21.564 70.3743 29.0669 76.8445 27.8601C80.229 27.2305 83.5139 26.4435 86.749 26.4435C94.8119 26.4435 102.477 29.0144 108.947 33.7889C108.549 34.5759 108.947 36.3073 108.947 37.2517L109.295 139.825C109.942 139.825 108.897 141.976 109.295 142.763C102.825 147.538 88.491 150.686 85.7536 150.948C82.5184 151.315 80.2787 151.683 76.8445 151.158C69.6775 150.056 69.4287 157.926 71.967 160.392C83.9618 172.355 99.5899 179.018 116.064 179.018C132.389 178.966 147.768 172.617 159.614 160.969C171.857 159.973 179.356 160.742 189.31 160.585V152.407C159.697 152.669 141.248 148.167 118.752 138.041V39.9276C141.198 29.8539 165.47 25.2862 189.31 26.0207ZM89.2375 15.4254C97.3502 11.4903 106.259 9.44412 115.417 9.44412C127.81 9.44412 139.705 13.2218 149.859 20.2524C149.411 20.3048 125.023 27.0206 118.752 29.644C110.39 21.9313 100.187 17.0519 89.2375 15.4254ZM151.551 159.291C143.438 163.226 128.756 169.627 119.548 169.627C107.155 169.627 92.4229 166.636 82.2696 159.605C82.7175 159.553 110.639 151.316 116.91 148.745C128.955 153.991 140.601 157.717 151.551 159.291Z" fill="#FEFEFE"/>
<path d="M54.8595 63.1362C54.8595 60.7227 52.5203 58.8339 49.6833 58.8339H23.6531C20.7664 58.8339 18.4769 60.7752 18.4769 63.1362C18.4769 65.4973 20.8161 67.4386 23.6531 67.4386H49.6833C52.57 67.4386 54.8595 65.4973 54.8595 63.1362Z" fill="#FEFEFE"/>
<path d="M67.8995 119.381C67.8995 118.227 67.3022 117.178 66.3566 116.39C66.3566 116.39 66.3566 116.39 66.3068 116.338C65.7095 115.866 64.9132 115.499 64.0173 115.289C63.5694 115.184 63.1215 115.131 62.6237 115.131H10.6131C10.2149 115.131 9.81671 115.184 9.41855 115.236C7.12908 115.656 5.43687 117.335 5.43687 119.276C5.43687 121.217 7.12908 122.896 9.41855 123.316C9.81671 123.421 10.2149 123.421 10.6131 123.421H62.7233C63.221 123.421 63.6689 123.369 64.1169 123.264C66.3068 122.896 67.8995 121.27 67.8995 119.381Z" fill="#FEFEFE"/>
<path d="M36.693 88.7403C36.693 86.1169 34.3538 84.0707 31.5169 84.0707H5.48665C2.59993 84.0707 0.310471 86.1694 0.310471 88.7403C0.310471 91.3112 2.6497 93.4099 5.48665 93.4099H31.5169C34.4036 93.4623 36.693 91.3637 36.693 88.7403Z" fill="#FEFEFE"/>
<path d="M108.426 62.4079C103.028 60.1479 96.9244 58.9917 90.6804 58.9917C70.8217 58.9917 44.625 83.7986 43.5453 84.8497C42.3246 86.006 41.6204 87.6878 41.6204 89.4748C41.6204 91.104 42.1838 92.6282 43.2166 93.7844C43.3105 93.8896 43.4044 93.9947 43.5453 94.0998C44.625 95.1509 70.8217 119.958 90.6804 119.958C96.9244 119.958 102.981 118.749 108.426 116.542C108.943 117.856 109.553 119.064 110.304 120.168V58.7814C109.553 59.8851 108.943 61.094 108.426 62.4079ZM107.159 106.713C101.995 109.604 95.7507 111.233 89.225 111.233C77.629 111.233 60.9158 98.4095 51.0568 89.4748C60.9158 80.5401 77.629 67.7161 89.225 67.7161C95.7507 67.7161 101.995 69.2929 107.159 72.236V106.713Z" fill="#FEFEFE"/>
<path d="M298.728 89.5853L292.108 61.8023C293.9 61.3829 295.244 59.7055 295.244 57.7135V53.2577C295.244 43.5075 287.727 35.5919 278.469 35.5919H248.404V26.3659C248.404 21.5956 244.72 17.6641 240.141 17.6641L189.31 18.0181V26.0181L240.191 26.0514C240.34 26.0514 240.439 26.1562 240.439 26.3135V102.533V120.461V152.123L189.31 152.412V160.51H248.951C248.951 160.615 248.951 160.668 248.951 160.773C248.951 175.45 260.3 187.402 274.238 187.402C288.175 187.402 299.524 175.45 299.524 160.773C299.524 160.668 299.524 160.615 299.524 160.51H312.566C314.756 160.51 316.548 158.623 316.548 156.317V111.497C316.548 100.384 308.783 91.2103 298.728 89.5853ZM248.453 43.9268H278.519C283.347 43.9268 287.279 48.0681 287.279 53.1529V53.415H248.453V43.9268ZM248.453 61.8547H283.894L290.415 89.3232H248.453V61.8547ZM274.238 178.963C264.681 178.963 256.965 170.785 256.965 160.773C256.965 150.76 264.73 142.583 274.238 142.583C283.795 142.583 291.51 150.76 291.51 160.773C291.56 170.785 283.795 178.963 274.238 178.963ZM308.584 152.071H298.131C294.696 141.639 285.288 134.143 274.238 134.143C263.187 134.143 253.78 141.639 250.345 152.071H248.404V97.7105H295.492C301.267 97.7105 306.194 101.747 307.887 107.251H295.492C293.302 107.251 291.51 109.138 291.51 111.445V120.409C291.51 127.695 297.135 133.566 304.004 133.566H308.534V152.071H308.584ZM308.584 125.179H304.054C301.565 125.179 299.524 123.03 299.524 120.409V115.638H308.584V125.179Z" fill="#C5D1FF"/>
</svg>
