<svg width="172" height="185" viewBox="0 0 172 185" fill="none" xmlns="http://www.w3.org/2000/svg">
<g filter="url(#filter0_d)">
<rect x="4" width="164" height="177" rx="22" fill="#F4F7FF"/>
</g>
<path d="M131.087 21H40.9129C39.8567 21 39 21.8475 39 22.8925V112.107C39 113.152 39.8567 114 40.9129 114H117.563C118.619 114 119.476 113.152 119.476 112.107C119.476 111.062 118.619 110.215 117.563 110.215H42.8258V24.7851H129.174V112.107C129.174 113.152 130.031 114 131.087 114C132.143 114 133 113.152 133 112.107V22.8925C133 21.8475 132.143 21 131.087 21Z" fill="#2452F6"/>
<path d="M59.9822 40.6891C55.9386 40.6891 52.6494 43.9433 52.6494 47.9438C52.6494 51.9443 55.9386 55.1986 59.9822 55.1986C64.0257 55.1986 67.3149 51.9443 67.3149 47.9438C67.3149 43.9433 64.0257 40.6891 59.9822 40.6891ZM59.9822 51.4135C58.0485 51.4135 56.4752 49.8569 56.4752 47.9438C56.4752 46.0308 58.0485 44.4742 59.9822 44.4742C61.9158 44.4742 63.4891 46.0308 63.4891 47.9438C63.4891 49.8569 61.9161 51.4135 59.9822 51.4135Z" fill="#2452F6"/>
<path d="M117.689 46.0513H73.0545C71.9983 46.0513 71.1416 46.8988 71.1416 47.9438C71.1416 48.9888 71.9983 49.8363 73.0545 49.8363H117.689C118.745 49.8363 119.601 48.9888 119.601 47.9438C119.601 46.8988 118.745 46.0513 117.689 46.0513Z" fill="#2452F6"/>
<path d="M59.9822 60.2452C58.9259 60.2452 58.0693 61.0928 58.0693 62.1378C58.0693 63.1828 58.9259 64.0303 59.9822 64.0303C61.9158 64.0303 63.4891 65.5869 63.4891 67.5C63.4891 69.413 61.9158 70.9696 59.9822 70.9696C58.0485 70.9696 56.4752 69.413 56.4752 67.5C56.4752 66.455 55.6185 65.6074 54.5623 65.6074C53.5061 65.6074 52.6494 66.455 52.6494 67.5C52.6494 71.5005 55.9386 74.7547 59.9822 74.7547C64.0257 74.7547 67.3149 71.5005 67.3149 67.5C67.3149 63.4995 64.0257 60.2452 59.9822 60.2452Z" fill="#2452F6"/>
<path d="M117.689 65.6074H73.0545C71.9983 65.6074 71.1416 66.455 71.1416 67.5C71.1416 68.545 71.9983 69.3925 73.0545 69.3925H117.689C118.745 69.3925 119.601 68.545 119.601 67.5C119.601 66.455 118.745 65.6074 117.689 65.6074Z" fill="#2452F6"/>
<path d="M59.9822 79.8015C55.9386 79.8015 52.6494 83.0557 52.6494 87.0562C52.6494 91.0568 55.9386 94.311 59.9822 94.311C64.0257 94.311 67.3149 91.0568 67.3149 87.0562C67.3149 83.0557 64.0257 79.8015 59.9822 79.8015ZM59.9822 90.5259C58.0485 90.5259 56.4752 88.9693 56.4752 87.0562C56.4752 85.1432 58.0485 83.5866 59.9822 83.5866C61.9158 83.5866 63.4891 85.1432 63.4891 87.0562C63.4891 88.9693 61.9161 90.5259 59.9822 90.5259Z" fill="#2452F6"/>
<path d="M117.689 85.1637H73.0545C71.9983 85.1637 71.1416 86.0112 71.1416 87.0562C71.1416 88.1012 71.9983 88.9488 73.0545 88.9488H117.689C118.745 88.9488 119.601 88.1012 119.601 87.0562C119.601 86.0112 118.745 85.1637 117.689 85.1637Z" fill="#2452F6"/>
<path d="M46.9618 134.4H44.5498L40.9318 142.536L37.3138 134.4H36.9718H34.9018V147H36.9718V137.82L40.1218 144.93H41.7418L44.8918 137.82V147H46.9618V134.4ZM52.9121 137.766C50.9141 137.766 49.3301 138.972 49.3301 140.97H51.2381C51.2381 140.07 51.9581 139.584 52.9121 139.584C53.8661 139.584 54.5861 140.07 54.5861 141.33V142.446C54.0281 141.888 53.1821 141.528 52.0301 141.528C50.4101 141.528 48.9341 142.464 48.9341 144.372C48.9341 146.28 50.4101 147.234 52.0301 147.234C53.1821 147.234 54.0281 146.856 54.5861 146.154V147H56.4941V141.24C56.4941 138.972 54.9101 137.766 52.9121 137.766ZM52.6601 145.722C51.4361 145.722 50.8781 145.146 50.8781 144.372C50.8781 143.598 51.4361 143.04 52.6601 143.04C53.8121 143.04 54.5861 143.544 54.5861 144.372C54.5861 145.146 53.8121 145.722 52.6601 145.722ZM63.71 137.766C62.306 137.766 61.244 138.342 60.56 139.278V138H58.616V150.6H60.56V145.704C61.244 146.658 62.306 147.234 63.71 147.234C66.158 147.234 68.192 145.164 68.192 142.5C68.192 139.818 66.158 137.766 63.71 137.766ZM63.404 145.38C61.856 145.38 60.668 144.282 60.56 142.734V142.266C60.668 140.718 61.856 139.62 63.404 139.62C65.024 139.62 66.248 140.826 66.248 142.5C66.248 144.174 65.024 145.38 63.404 145.38ZM79.6198 138V145.164H76.7758V138H74.8318V145.164H71.9878V138H70.0438V147H70.8178H74.8318H79.6198H81.5638V138H79.6198ZM88.9915 137.766C87.5875 137.766 86.5255 138.342 85.8415 139.278V138H83.8975V150.6H85.8415V145.704C86.5255 146.658 87.5875 147.234 88.9915 147.234C91.4395 147.234 93.4735 145.164 93.4735 142.5C93.4735 139.818 91.4395 137.766 88.9915 137.766ZM88.6855 145.38C87.1375 145.38 85.9495 144.282 85.8415 142.734V142.266C85.9495 140.718 87.1375 139.62 88.6855 139.62C90.3055 139.62 91.5295 140.826 91.5295 142.5C91.5295 144.174 90.3055 145.38 88.6855 145.38ZM100.219 138L98.1666 144.39L95.7186 138H93.6486L97.1586 146.91L97.1046 147.054C96.6906 148.26 95.9706 148.854 94.7106 148.782V150.6C96.6906 150.726 98.3106 149.61 99.1026 147.288L102.289 138H100.219ZM109.763 138H107.189H102.653V139.836H105.245V147H107.189V139.836H109.763V138ZM116.694 138V141.582H113.112V138H111.168V147H113.112V143.418H116.694V147H118.638V138H116.694ZM124.47 137.766C122.472 137.766 120.888 138.972 120.888 140.97H122.796C122.796 140.07 123.516 139.584 124.47 139.584C125.424 139.584 126.144 140.07 126.144 141.33V142.446C125.586 141.888 124.74 141.528 123.588 141.528C121.968 141.528 120.492 142.464 120.492 144.372C120.492 146.28 121.968 147.234 123.588 147.234C124.74 147.234 125.586 146.856 126.144 146.154V147H128.052V141.24C128.052 138.972 126.468 137.766 124.47 137.766ZM124.218 145.722C122.994 145.722 122.436 145.146 122.436 144.372C122.436 143.598 122.994 143.04 124.218 143.04C125.37 143.04 126.144 143.544 126.144 144.372C126.144 145.146 125.37 145.722 124.218 145.722ZM137.14 138H133.126C131.218 138 129.94 139.368 129.94 140.988C129.94 142.248 130.732 143.346 131.956 143.778L129.22 147H131.506L134.062 143.976H135.232V147H137.14V138ZM133.234 142.302C132.46 142.302 131.848 141.834 131.848 141.042C131.848 140.232 132.46 139.764 133.234 139.764H135.232V142.302H133.234ZM52.7953 165L48.7633 160.41L52.6153 156H50.2933L46.8733 159.978V156H44.9293V165H46.8733V160.842L50.4733 165H52.7953ZM60.6571 159.636C60.8911 159.276 61.0351 158.88 61.0351 158.448C61.0351 157.098 59.9371 156 58.1551 156H56.0491H54.1951V160.824V165H58.9651C61.1431 165 62.2051 163.686 62.2051 162.102C62.2051 161.022 61.6651 160.104 60.6571 159.636ZM56.0491 157.62H57.9211C58.6591 157.602 59.1811 157.998 59.1811 158.7C59.1811 158.916 59.1091 159.114 59.0011 159.294H58.9651H56.0491V157.62ZM58.8211 163.344H56.0491V160.824H58.8211C59.7751 160.824 60.2971 161.274 60.2971 162.066C60.2971 162.858 59.7751 163.344 58.8211 163.344ZM69.7181 156L65.6501 161.76V156H63.7421V165H65.2361L69.3041 159.24V165H71.2121V156H69.7181ZM79.7088 156H77.1348H72.5988V157.836H75.1908V165H77.1348V157.836H79.7088V156ZM84.4117 155.766C82.4137 155.766 80.8297 156.972 80.8297 158.97H82.7377C82.7377 158.07 83.4577 157.584 84.4117 157.584C85.3657 157.584 86.0857 158.07 86.0857 159.33V160.446C85.5277 159.888 84.6817 159.528 83.5297 159.528C81.9097 159.528 80.4337 160.464 80.4337 162.372C80.4337 164.28 81.9097 165.234 83.5297 165.234C84.6817 165.234 85.5277 164.856 86.0857 164.154V165H87.9937V159.24C87.9937 156.972 86.4097 155.766 84.4117 155.766ZM84.1597 163.722C82.9357 163.722 82.3777 163.146 82.3777 162.372C82.3777 161.598 82.9357 161.04 84.1597 161.04C85.3117 161.04 86.0857 161.544 86.0857 162.372C86.0857 163.146 85.3117 163.722 84.1597 163.722ZM95.6416 156V159.582H92.0596V156H90.1156V165H92.0596V161.418H95.6416V165H97.5856V156H95.6416ZM107.144 163.164V156H105.2V163.164H101.888V156H99.9439V165H106.712V167.592H108.62V163.164H107.144ZM116.276 156L112.208 161.76V156H110.3V165H111.794L115.862 159.24V165H117.77V156H116.276ZM127.076 156H123.062C121.154 156 119.876 157.368 119.876 158.988C119.876 160.248 120.668 161.346 121.892 161.778L119.156 165H121.442L123.998 161.976H125.168V165H127.076V156ZM123.17 160.302C122.396 160.302 121.784 159.834 121.784 159.042C121.784 158.232 122.396 157.764 123.17 157.764H125.168V160.302H123.17Z" fill="#383839"/>
<defs>
<filter id="filter0_d" x="0" y="0" width="172" height="185" filterUnits="userSpaceOnUse" color-interpolation-filters="sRGB">
<feFlood flood-opacity="0" result="BackgroundImageFix"/>
<feColorMatrix in="SourceAlpha" type="matrix" values="0 0 0 0 0 0 0 0 0 0 0 0 0 0 0 0 0 0 127 0"/>
<feOffset dy="4"/>
<feGaussianBlur stdDeviation="2"/>
<feColorMatrix type="matrix" values="0 0 0 0 0.808333 0 0 0 0 0.808333 0 0 0 0 0.808333 0 0 0 0.39 0"/>
<feBlend mode="normal" in2="BackgroundImageFix" result="effect1_dropShadow"/>
<feBlend mode="normal" in="SourceGraphic" in2="effect1_dropShadow" result="shape"/>
</filter>
</defs>
</svg>
