<svg width="956" height="42" viewBox="0 0 956 42" fill="none" xmlns="http://www.w3.org/2000/svg">
<g clip-path="url(#clip0)" filter="url(#filter0_d)">
<path d="M37.1089 15.7923C37.1089 15.4792 36.8549 15.2255 36.5415 15.2255H34.5613C34.2482 15.2255 33.9941 15.4792 33.9941 15.7923V17.7723C33.9941 18.0858 34.2482 18.3397 34.5613 18.3397H36.5415C36.8549 18.3397 37.1089 18.0858 37.1089 17.7723V15.7923Z" fill="#FED542"/>
<path d="M42.0578 15.7923C42.0578 15.4792 41.8038 15.2255 41.4909 15.2255H39.5105C39.1974 15.2255 38.9434 15.4792 38.9434 15.7923V17.7723C38.9434 18.0858 39.1974 18.3397 39.5105 18.3397H41.4909C41.8038 18.3397 42.0578 18.0858 42.0578 17.7723V15.7923Z" fill="#FED542"/>
<path d="M47.0064 15.7923C47.0064 15.4792 46.7523 15.2255 46.4392 15.2255H44.459C44.1456 15.2255 43.8916 15.4792 43.8916 15.7923V17.7723C43.8916 18.0858 44.1456 18.3397 44.459 18.3397H46.4392C46.7523 18.3397 47.0064 18.0858 47.0064 17.7723V15.7923Z" fill="#FED542"/>
<path d="M37.1089 20.7416C37.1089 20.4279 36.8549 20.1744 36.5415 20.1744H34.5613C34.2482 20.1744 33.9941 20.4279 33.9941 20.7416V22.7212C33.9941 23.0346 34.2482 23.2883 34.5613 23.2883H36.5415C36.8549 23.2883 37.1089 23.0345 37.1089 22.7212V20.7416Z" fill="#FED542"/>
<path d="M42.0578 20.7416C42.0578 20.4279 41.8038 20.1744 41.4909 20.1744H39.5105C39.1974 20.1744 38.9434 20.4279 38.9434 20.7416V22.7212C38.9434 23.0346 39.1974 23.2883 39.5105 23.2883H41.4909C41.8038 23.2883 42.0578 23.0345 42.0578 22.7212V20.7416Z" fill="#FED542"/>
<path d="M47.0064 20.7416C47.0064 20.4279 46.7523 20.1744 46.4395 20.1744H44.459C44.1456 20.1744 43.8916 20.4279 43.8916 20.7416V22.7212C43.8916 23.0346 44.1456 23.2883 44.459 23.2883H46.4395C46.7523 23.2883 47.0064 23.0345 47.0064 22.7212V20.7416Z" fill="#FED542"/>
<path d="M52.6824 6.59846C52.3667 4.97359 50.5472 6.15259 50.5472 7.80785C50.5472 9.17474 49.4383 10.2762 48.0716 10.2762H46.51C45.1432 10.2762 44.0196 9.17474 44.0196 7.80785C44.0196 6.13165 42.6608 4.77283 40.9846 4.77283H40.0159C38.3397 4.77283 36.9808 6.13165 36.9808 7.80785C36.9808 9.17474 35.8573 10.2762 34.4907 10.2762H32.9288C31.5621 10.2762 30.4533 9.17474 30.4533 7.80785C30.4533 6.15259 28.6338 4.97357 28.3181 6.59843C28.2914 6.73586 28.2773 6.87776 28.2773 7.0229V24.7459C28.2773 25.9836 29.2805 27.0001 30.5182 27.0001H50.4823C51.7181 27.0001 52.7231 25.9815 52.7231 24.7459V7.0229C52.7231 6.87777 52.7091 6.73588 52.6824 6.59846ZM49.8219 23.6423C49.8219 24.1772 49.3882 24.6111 48.8531 24.6111H32.1047C31.5696 24.6111 31.1359 24.1772 31.1359 23.6423V14.4877C31.1359 13.9526 31.5696 13.5187 32.1047 13.5187H48.8531C49.3881 13.5187 49.8218 13.9526 49.8218 14.4877L49.8219 23.6423Z" fill="#FED542"/>
<path d="M32.9232 8.65495H34.4679C34.9368 8.65495 35.317 8.27535 35.317 7.80649V2.84876C35.317 2.37985 34.9368 2 34.4679 2H32.9232C32.4543 2 32.0742 2.37985 32.0742 2.84876V7.80649C32.0742 8.27535 32.4543 8.65495 32.9232 8.65495Z" fill="#FED542"/>
<path d="M46.4906 8.65495H48.0353C48.5038 8.65495 48.884 8.27535 48.884 7.80649V2.84876C48.884 2.37985 48.5039 2 48.0353 2H46.4906C46.0218 2 45.6416 2.37985 45.6416 2.84876V7.80649C45.6416 8.27535 46.0218 8.65495 46.4906 8.65495Z" fill="#FED542"/>
</g>
<g filter="url(#filter1_d)">
<path d="M155.5 4C150.907 4 147.17 7.73669 147.17 12.3297C147.17 18.0297 154.624 26.3977 154.942 26.7512C155.24 27.0832 155.76 27.0826 156.058 26.7512C156.375 26.3977 163.829 18.0297 163.829 12.3297C163.829 7.73669 160.093 4 155.5 4ZM155.5 16.5206C153.189 16.5206 151.309 14.6406 151.309 12.3297C151.309 10.0188 153.189 8.13883 155.5 8.13883C157.81 8.13883 159.69 10.0189 159.69 12.3297C159.69 14.6406 157.81 16.5206 155.5 16.5206Z" fill="#FF1E4F"/>
</g>
<g filter="url(#filter2_d)">
<path d="M613.5 9C608.907 9 605.17 12.7367 605.17 17.3297C605.17 23.0297 612.624 31.3977 612.942 31.7512C613.24 32.0832 613.76 32.0826 614.058 31.7512C614.375 31.3977 621.829 23.0297 621.829 17.3297C621.829 12.7367 618.093 9 613.5 9ZM613.5 21.5206C611.189 21.5206 609.309 19.6406 609.309 17.3297C609.309 15.0188 611.189 13.1388 613.5 13.1388C615.81 13.1388 617.69 15.0189 617.69 17.3297C617.69 19.6406 615.81 21.5206 613.5 21.5206Z" fill="#426BFE"/>
</g>
<line y1="34.5" x2="87" y2="34.5" stroke="#FED542"/>
<line x1="681" y1="34.5" x2="832" y2="34.5" stroke="#383839"/>
<line x1="865" y1="34.5" x2="956" y2="34.5" stroke="#CFCFCF"/>
<line x1="155" y1="34.5" x2="613.406" y2="34.5" stroke="url(#paint0_linear)" stroke-dasharray="8 5"/>
<path d="M748.352 19.6813L747.321 20.2778V31L756.602 25.6413V14.9191L748.352 19.6813Z" fill="#383839"/>
<path d="M750.031 10.0662L746.462 8L736.923 13.5066L740.497 15.5728L750.031 10.0662Z" fill="#383839"/>
<path d="M755.996 13.5066L751.883 11.1637L742.349 16.6703L742.893 16.9519L746.462 19.0133L750.012 16.9662L755.996 13.5066Z" fill="#383839"/>
<path d="M741.628 20.6118L739.92 19.7338V17.0043L736.398 14.9763V25.6222L745.613 30.9427V20.2969L741.628 18.0016V20.6118Z" fill="#383839"/>
<g clip-path="url(#clip1)">
<path d="M911.142 19.6309C910.396 19.2189 909.604 18.9049 908.819 18.5792C908.364 18.3909 907.928 18.1711 907.544 17.865C906.786 17.2607 906.931 16.2797 907.818 15.8912C908.069 15.7813 908.332 15.746 908.599 15.7303C909.627 15.6754 910.604 15.8637 911.534 16.3111C911.997 16.5348 912.151 16.4641 912.307 15.9815C912.472 15.4713 912.61 14.9533 912.763 14.4393C912.865 14.094 912.739 13.8664 912.413 13.7212C911.817 13.4582 911.205 13.2699 910.561 13.1679C909.721 13.0384 909.721 13.0344 909.718 12.1908C909.714 11.0017 909.714 11.0017 908.521 11.0017C908.348 11.0017 908.175 10.9978 908.003 11.0017C907.445 11.0174 907.351 11.1155 907.336 11.6767C907.328 11.9278 907.336 12.179 907.332 12.4341C907.328 13.1796 907.324 13.1679 906.61 13.4269C904.883 14.0547 903.816 15.232 903.702 17.1155C903.6 18.7833 904.471 19.9095 905.841 20.7297C906.684 21.2359 907.618 21.5341 908.513 21.9304C908.862 22.0835 909.196 22.2601 909.486 22.5034C910.345 23.2136 910.188 24.3948 909.168 24.8421C908.623 25.0815 908.046 25.1404 907.453 25.0658C906.539 24.952 905.664 24.7126 904.84 24.2849C904.357 24.0338 904.216 24.1005 904.051 24.6224C903.91 25.0737 903.784 25.5289 903.659 25.9841C903.49 26.5962 903.553 26.7414 904.137 27.0279C904.883 27.3889 905.68 27.5733 906.492 27.7028C907.128 27.8049 907.147 27.8323 907.155 28.4916C907.159 28.7898 907.159 29.092 907.163 29.3902C907.167 29.7669 907.347 29.9867 907.736 29.9945C908.175 30.0024 908.619 30.0024 909.058 29.9906C909.419 29.9827 909.604 29.7865 909.604 29.4216C909.604 29.0135 909.623 28.6015 909.608 28.1933C909.588 27.7774 909.769 27.5655 910.169 27.4556C911.091 27.2045 911.876 26.71 912.48 25.9723C914.16 23.9317 913.52 20.9455 911.142 19.6309Z" fill="#C8C8C8"/>
</g>
<defs>
<filter id="filter0_d" x="22" y="0" width="37" height="37" filterUnits="userSpaceOnUse" color-interpolation-filters="sRGB">
<feFlood flood-opacity="0" result="BackgroundImageFix"/>
<feColorMatrix in="SourceAlpha" type="matrix" values="0 0 0 0 0 0 0 0 0 0 0 0 0 0 0 0 0 0 127 0"/>
<feOffset dy="4"/>
<feGaussianBlur stdDeviation="3"/>
<feColorMatrix type="matrix" values="0 0 0 0 0.995833 0 0 0 0 0.254767 0 0 0 0 0.0207465 0 0 0 0.05 0"/>
<feBlend mode="normal" in2="BackgroundImageFix" result="effect1_dropShadow"/>
<feBlend mode="normal" in="SourceGraphic" in2="effect1_dropShadow" result="shape"/>
</filter>
<filter id="filter1_d" x="140" y="4" width="31" height="31" filterUnits="userSpaceOnUse" color-interpolation-filters="sRGB">
<feFlood flood-opacity="0" result="BackgroundImageFix"/>
<feColorMatrix in="SourceAlpha" type="matrix" values="0 0 0 0 0 0 0 0 0 0 0 0 0 0 0 0 0 0 127 0"/>
<feOffset dy="4"/>
<feGaussianBlur stdDeviation="2"/>
<feColorMatrix type="matrix" values="0 0 0 0 1 0 0 0 0 0.145833 0 0 0 0 0.145833 0 0 0 0.12 0"/>
<feBlend mode="normal" in2="BackgroundImageFix" result="effect1_dropShadow"/>
<feBlend mode="normal" in="SourceGraphic" in2="effect1_dropShadow" result="shape"/>
</filter>
<filter id="filter2_d" x="596" y="7" width="35" height="35" filterUnits="userSpaceOnUse" color-interpolation-filters="sRGB">
<feFlood flood-opacity="0" result="BackgroundImageFix"/>
<feColorMatrix in="SourceAlpha" type="matrix" values="0 0 0 0 0 0 0 0 0 0 0 0 0 0 0 0 0 0 127 0"/>
<feOffset dy="4"/>
<feGaussianBlur stdDeviation="3"/>
<feColorMatrix type="matrix" values="0 0 0 0 0.225556 0 0 0 0 0.362017 0 0 0 0 0.845833 0 0 0 0.11 0"/>
<feBlend mode="normal" in2="BackgroundImageFix" result="effect1_dropShadow"/>
<feBlend mode="normal" in="SourceGraphic" in2="effect1_dropShadow" result="shape"/>
</filter>
<linearGradient id="paint0_linear" x1="155" y1="35" x2="613.406" y2="35" gradientUnits="userSpaceOnUse">
<stop stop-color="#FE426B"/>
<stop offset="1" stop-color="#426BFE"/>
</linearGradient>
<clipPath id="clip0">
<rect width="25" height="25" fill="white" transform="translate(28 2)"/>
</clipPath>
<clipPath id="clip1">
<rect width="19" height="19" fill="white" transform="translate(899 11)"/>
</clipPath>
</defs>
</svg>
