<svg width="172" height="185" viewBox="0 0 172 185" fill="none" xmlns="http://www.w3.org/2000/svg">
<g filter="url(#filter0_d)">
<rect x="4" width="164" height="177" rx="22" fill="#F4F7FF"/>
</g>
<g clip-path="url(#clip0)">
<path d="M38.8722 114L127.128 114C128.162 114 129 113.171 129 112.148L129 24.8518C129 23.8293 128.162 23 127.128 23L52.1089 23C51.0751 23 50.2367 23.8293 50.2367 24.8518C50.2367 25.8744 51.0751 26.7037 52.1089 26.7037L125.256 26.7037L125.256 110.296L40.7444 110.296L40.7444 24.8518C40.7444 23.8293 39.906 23 38.8722 23C37.8384 23 37 23.8293 37 24.8518L37 112.148C37 113.171 37.8384 114 38.8722 114Z" fill="#2452F6"/>
<path d="M50.3049 89.4696L62.0943 89.4696C62.3733 89.4696 62.5996 88.5837 62.5996 87.4913C62.5996 86.399 62.3733 85.5131 62.0943 85.5131L50.3049 85.5131C50.0259 85.5131 49.7996 86.399 49.7996 87.4913C49.7996 88.5837 50.0258 89.4696 50.3049 89.4696Z" fill="#2452F6"/>
<path d="M50.3049 70.4783L62.0943 70.4783C62.3733 70.4783 62.5996 69.5923 62.5996 68.5C62.5996 67.4077 62.3733 66.5218 62.0943 66.5218L50.3049 66.5217C50.0259 66.5217 49.7996 67.4077 49.7996 68.5C49.7996 69.5923 50.0258 70.4783 50.3049 70.4783Z" fill="#2452F6"/>
<path d="M50.3049 51.4869L62.0943 51.4869C62.3733 51.4869 62.5996 50.601 62.5996 49.5087C62.5996 48.4163 62.3733 47.5304 62.0943 47.5304L50.3049 47.5304C50.0259 47.5304 49.7996 48.4163 49.7996 49.5087C49.7996 50.601 50.0258 51.4869 50.3049 51.4869Z" fill="#2452F6"/>
<path d="M68.5684 89.4696L95.8316 89.4696C96.4767 89.4696 97 88.5837 97 87.4913C97 86.399 96.4767 85.5131 95.8316 85.5131L68.5684 85.5131C67.9233 85.5131 67.4 86.399 67.4 87.4913C67.4 88.5837 67.9231 89.4696 68.5684 89.4696Z" fill="#2452F6"/>
<path d="M68.5684 70.4783L95.8316 70.4783C96.4767 70.4783 97 69.5923 97 68.5C97 67.4077 96.4767 66.5218 95.8316 66.5218L68.5684 66.5217C67.9233 66.5217 67.4 67.4077 67.4 68.5C67.4 69.5923 67.9231 70.4783 68.5684 70.4783Z" fill="#2452F6"/>
<path d="M68.5684 51.4869L95.8316 51.4869C96.4767 51.4869 97 50.601 97 49.5087C97 48.4163 96.4767 47.5304 95.8316 47.5304L68.5684 47.5304C67.9233 47.5304 67.4 48.4163 67.4 49.5087C67.4 50.601 67.9231 51.4869 68.5684 51.4869Z" fill="#2452F6"/>
<path d="M101.632 89.4696L116.368 89.4696C116.717 89.4696 117 88.5837 117 87.4913C117 86.399 116.717 85.5131 116.368 85.5131L101.632 85.5131C101.283 85.5131 101 86.399 101 87.4913C101 88.5837 101.283 89.4696 101.632 89.4696Z" fill="#2452F6"/>
<path d="M101.632 70.4783L116.368 70.4783C116.717 70.4783 117 69.5923 117 68.5C117 67.4077 116.717 66.5218 116.368 66.5218L101.632 66.5218C101.283 66.5218 101 67.4077 101 68.5C101 69.5923 101.283 70.4783 101.632 70.4783Z" fill="#2452F6"/>
<path d="M101.632 51.4869L116.368 51.4869C116.717 51.4869 117 50.601 117 49.5087C117 48.4164 116.717 47.5304 116.368 47.5304L101.632 47.5304C101.283 47.5304 101 48.4164 101 49.5087C101 50.601 101.283 51.4869 101.632 51.4869Z" fill="#2452F6"/>
</g>
<path d="M79.0732 143.4H75.8872H70.6132V145.38H73.8172V156H75.8872V145.38H79.0732V143.4ZM89.0611 143.4H85.8751H80.6011V145.38H83.8051V156H85.8751V145.38H89.0611V143.4ZM98.3311 143.4V148.53H93.5611V143.4H91.4911V156H93.5611V150.51H98.3311V156H100.401V143.4H98.3311Z" fill="#383839"/>
<defs>
<filter id="filter0_d" x="0" y="0" width="172" height="185" filterUnits="userSpaceOnUse" color-interpolation-filters="sRGB">
<feFlood flood-opacity="0" result="BackgroundImageFix"/>
<feColorMatrix in="SourceAlpha" type="matrix" values="0 0 0 0 0 0 0 0 0 0 0 0 0 0 0 0 0 0 127 0"/>
<feOffset dy="4"/>
<feGaussianBlur stdDeviation="2"/>
<feColorMatrix type="matrix" values="0 0 0 0 0.808333 0 0 0 0 0.808333 0 0 0 0 0.808333 0 0 0 0.39 0"/>
<feBlend mode="normal" in2="BackgroundImageFix" result="effect1_dropShadow"/>
<feBlend mode="normal" in="SourceGraphic" in2="effect1_dropShadow" result="shape"/>
</filter>
<clipPath id="clip0">
<rect width="92" height="91" fill="white" transform="translate(129 114) rotate(-180)"/>
</clipPath>
</defs>
</svg>
