<svg width="179" height="35" viewBox="0 0 179 35" fill="none" xmlns="http://www.w3.org/2000/svg">
<path d="M82.7671 7.5246H68.4058V10.2399H74.1503V29.1235H76.9917V10.2399H82.7671V7.5246Z" fill="white"/>
<path d="M99.6609 29.1235H103.151L95.7077 20.4839C98.3329 19.5891 100.217 17.0898 100.217 14.2202C100.217 10.5176 97.1901 7.5246 93.484 7.5246H85.6084V29.1235H88.4807V20.8542H92.5575L99.6609 29.1235ZM88.4807 10.209H93.484C95.615 10.209 97.3446 11.9987 97.3446 14.2202C97.3446 16.4418 95.615 18.2623 93.484 18.2623H88.4807V10.209Z" fill="white"/>
<path d="M111.077 29.5246C115.586 29.5246 119.23 25.9762 119.23 21.4096C119.23 16.843 115.586 13.2946 111.077 13.2946C106.568 13.2946 102.954 16.843 102.954 21.4096C102.954 25.9762 106.568 29.5246 111.077 29.5246ZM111.077 26.9019C108.019 26.9019 105.641 24.526 105.641 21.4096C105.641 18.2932 108.019 15.9173 111.077 15.9173C114.165 15.9173 116.543 18.2932 116.543 21.4096C116.543 24.526 114.165 26.9019 111.077 26.9019Z" fill="white"/>
<path d="M137.161 23.9397H134.319C133.64 25.6985 131.818 26.871 129.656 26.871C126.598 26.871 124.22 24.4951 124.22 21.4096C124.22 18.2932 126.598 15.9173 129.656 15.9173C131.818 15.9173 133.609 17.0898 134.319 18.8486H137.161C136.327 15.5779 133.3 13.2946 129.656 13.2946C124.992 13.2946 121.533 16.843 121.533 21.4096C121.533 25.9762 124.992 29.5246 129.656 29.5246C133.3 29.5246 136.358 27.2413 137.161 23.9397Z" fill="white"/>
<path d="M153.044 29.1235L145.416 21.1627L152.735 13.6957H149.369L142.729 20.5456V7.5246H140.042V29.1235H142.729V21.8416L149.678 29.1235H153.044Z" fill="white"/>
<path d="M156.071 22.6438H168.796C168.857 22.2427 168.888 21.8416 168.888 21.4404C168.888 17.1207 165.985 13.2946 161.322 13.2946C156.504 13.2946 153.323 16.843 153.323 21.4096C153.323 26.0379 156.504 29.5246 161.353 29.5246C164.781 29.5246 167.468 27.6424 168.363 24.8346H165.553C164.904 26.0996 163.36 27.087 161.383 27.087C158.635 27.087 156.535 25.4825 156.071 22.6438ZM156.071 20.2679C156.504 17.6144 158.418 15.8247 161.291 15.8247C163.607 15.8247 165.738 17.2441 166.14 20.2679H156.071Z" fill="white"/>
<path d="M179 13.6957H175.973V8.75882H173.286V13.6957H170.229V16.2876H173.286V29.1235H175.973V16.2876H179V13.6957Z" fill="white"/>
<path fill-rule="evenodd" clip-rule="evenodd" d="M33.7201 29.9221C33.9147 29.9253 34.1129 29.9259 34.3167 29.9227L34.3149 29.9164L51.2733 29.7543V29.8014C51.2733 32.437 53.3112 34.5831 55.8138 34.5831C58.2998 34.5831 60.2722 32.5565 60.2983 29.9462C60.3092 30.2514 60.5464 30.2421 60.8315 30.2309C60.887 30.2288 60.9444 30.2265 61.0023 30.2265H63.2945C63.6878 30.2265 64.2932 29.3091 64.2932 28.895V20.9439C64.2932 18.9484 63.4187 16.5371 61.6132 16.2453C61.2803 9.2838 59.6159 7.61937 56.9528 7.32357H51.175V5.66691C51.175 4.81034 50.5136 4.10438 49.6913 4.10438L33.6508 4.16796V4.19212C33.1685 4.18503 32.7186 4.17135 32.2874 4.15823C31.1332 4.12314 30.1133 4.09213 28.9672 4.20252C26.8313 2.11102 24.0787 0.961639 21.1473 0.961639C18.1891 0.961639 15.374 2.14871 13.2291 4.30616C12.7018 4.83374 12.9431 6.18097 14.1049 5.96429C14.2176 5.94333 14.3296 5.9214 14.4411 5.89959C14.931 5.8037 15.4102 5.70991 15.8834 5.70991C17.3312 5.70991 19.1737 6.42914 20.3355 7.28647C20.264 7.42779 20.3355 7.61935 20.3355 7.61935V12.2601C19.369 11.8576 18.2775 11.6517 17.1609 11.6517C13.5951 11.6517 8.89111 16.1062 8.69722 16.2949C8.47804 16.5025 8.35158 16.8045 8.35158 17.1254C8.35158 17.4179 8.45275 17.6916 8.63821 17.8992C8.65507 17.9181 8.67193 17.937 8.69722 17.9559C8.89111 18.1446 13.5951 22.599 17.1609 22.599C18.2775 22.599 19.3607 22.3837 20.3355 21.9905V25.9281C20.3355 25.9281 20.2004 26.3985 19.9319 26.5967C18.7701 27.454 16.1962 28.0193 15.7046 28.0664C15.6456 28.0731 15.5885 28.0798 15.5327 28.0863C15.0399 28.1441 14.6589 28.1887 14.1049 28.1041C12.818 27.9062 12.7733 29.3194 13.2291 29.7622C15.3829 31.9102 18.1891 33.1067 21.1473 33.1067C24.0787 33.0973 26.8402 31.9573 28.9672 29.8658C30.3029 29.7571 31.3304 29.8119 32.332 29.8653C32.7687 29.8886 33.2006 29.9117 33.6508 29.9208V29.9227L33.7201 29.9221ZM33.6508 6.26836C29.6513 6.15957 26.1529 6.23784 22.3328 7.95224V25.2623C26.3274 27.5925 28.3334 27.6396 33.6509 27.5925L48.9636 27.5925V6.28783H33.6508V6.26836ZM16.3302 3.73147C17.787 3.02488 19.3867 2.65745 21.0311 2.65745C23.2564 2.65745 25.0285 3.01546 26.8516 4.2779C26.7712 4.28732 22.3921 5.49323 21.266 5.96429C19.7646 4.57937 18.2964 4.02352 16.3302 3.73147ZM26.3274 28.924C24.9959 30.2556 23.3204 31.2542 21.667 31.2542C19.4417 31.2542 17.5278 30.8522 15.7046 29.5898C16.9558 29.5898 21.2067 28.0541 22.3328 27.5925C24.2052 28.4081 24.8316 28.56 25.8301 28.8021C25.9849 28.8396 26.1487 28.8794 26.3274 28.924ZM20.1199 19.7006C19.1926 20.2197 18.0714 20.3664 16.8996 20.3664C14.8174 20.3664 12.3579 18.7297 10.5876 17.1254C12.3579 15.521 14.8174 14.0299 16.8996 14.0299C18.0714 14.0299 19.1926 14.1788 20.1199 14.7073V19.7006ZM50.9778 9.25472L56.6199 9.2838C58.9153 9.61668 59.283 13.6113 59.283 16.2453H50.9778V9.25472ZM62.2959 28.2389H60.2962C59.6794 26.3657 57.7981 25.0197 55.8138 25.0197C53.8296 25.0197 52.1403 26.3657 51.5236 28.2389H51.175V18.4778H58.9153C59.9521 18.4778 61.6772 19.2026 61.9811 20.1909H60.2962C59.9029 20.1909 58.9153 20.1909 58.9153 20.9439V22.5535C58.9153 23.8619 60.5911 24.9161 61.8246 24.9161H62.2959V28.2389ZM61.9811 23.2359H61.6301C61.1832 23.2359 60.6315 23.0242 60.6315 22.5535V21.5715H61.9811V23.2359ZM58.6172 29.5898C58.6172 31.0606 57.778 32.5858 55.9541 32.5858C54.1303 32.5858 52.9581 31.5871 52.9581 29.5898C52.9581 28.119 53.9568 26.9267 55.6212 26.9267C57.6185 26.9267 58.6172 28.119 58.6172 29.5898Z" fill="white"/>
<path d="M9.2278 11.5261C9.73721 11.5261 10.1572 11.8652 10.1572 12.2986C10.1572 12.7225 9.74615 13.0711 9.2278 13.0711H4.55373C4.04432 13.0711 3.62428 12.7225 3.62428 12.2986C3.62428 11.8746 4.03538 11.5261 4.55373 11.5261H9.2278Z" fill="white"/>
<path d="M12.4988 22.3981C12.4988 22.1908 12.3916 22.0024 12.2218 21.8611L12.2129 21.8517C12.1056 21.7669 11.9626 21.7009 11.8018 21.6633C11.7213 21.6444 11.6409 21.635 11.5515 21.635H2.21232C2.14083 21.635 2.06935 21.6444 1.99787 21.6538C1.58677 21.7292 1.28287 22.0307 1.28287 22.3793C1.28287 22.7278 1.58672 23.0293 1.99783 23.1047C2.06932 23.1235 2.14081 23.1235 2.2123 23.1235H11.5694C11.6588 23.1235 11.7392 23.1141 11.8196 23.0953C12.2129 23.0293 12.4988 22.7373 12.4988 22.3981Z" fill="white"/>
<path d="M5.96582 16.0576C6.47523 16.0576 6.89527 16.425 6.89527 16.8961C6.89527 17.3671 6.48417 17.744 5.96582 17.7346H1.29176C0.782345 17.7346 0.362305 17.3577 0.362305 16.8961C0.362305 16.4345 0.773407 16.0576 1.29176 16.0576H5.96582Z" fill="white"/>
</svg>
