<svg width="179" height="35" viewBox="0 0 179 35" fill="none" xmlns="http://www.w3.org/2000/svg">
<path d="M82.7669 7.5246H68.4056V10.2424H74.1502V29.1438H76.9915V10.2424H82.7669V7.5246Z" fill="#383839"/>
<path d="M99.6608 29.1438H103.151L95.7076 20.4961C98.3328 19.6005 100.217 17.0988 100.217 14.2265C100.217 10.5204 97.19 7.5246 93.4839 7.5246H85.6083V29.1438H88.4806V20.8667H92.5573L99.6608 29.1438ZM88.4806 10.2116H93.4839C95.6149 10.2116 97.3444 12.0029 97.3444 14.2265C97.3444 16.4502 95.6149 18.2724 93.4839 18.2724H88.4806V10.2116Z" fill="#383839"/>
<path d="M111.077 29.5453C115.586 29.5453 119.23 25.9935 119.23 21.4226C119.23 16.8517 115.586 13.3 111.077 13.3C106.568 13.3 102.954 16.8517 102.954 21.4226C102.954 25.9935 106.568 29.5453 111.077 29.5453ZM111.077 26.9201C108.019 26.9201 105.641 24.542 105.641 21.4226C105.641 18.3033 108.019 15.9252 111.077 15.9252C114.165 15.9252 116.543 18.3033 116.543 21.4226C116.543 24.542 114.165 26.9201 111.077 26.9201Z" fill="#383839"/>
<path d="M137.161 23.9552H134.319C133.64 25.7156 131.818 26.8892 129.656 26.8892C126.598 26.8892 124.22 24.5111 124.22 21.4226C124.22 18.3033 126.598 15.9252 129.656 15.9252C131.818 15.9252 133.609 17.0988 134.319 18.8592H137.161C136.327 15.5855 133.3 13.3 129.656 13.3C124.992 13.3 121.533 16.8517 121.533 21.4226C121.533 25.9935 124.992 29.5453 129.656 29.5453C133.3 29.5453 136.358 27.2598 137.161 23.9552Z" fill="#383839"/>
<path d="M153.044 29.1438L145.416 21.1756L152.735 13.7015H149.369L142.729 20.5579V7.5246H140.042V29.1438H142.729V21.855L149.678 29.1438H153.044Z" fill="#383839"/>
<path d="M156.071 22.658H168.796C168.857 22.2565 168.888 21.855 168.888 21.4535C168.888 17.1297 165.985 13.3 161.322 13.3C156.504 13.3 153.322 16.8517 153.322 21.4226C153.322 26.0553 156.504 29.5453 161.352 29.5453C164.781 29.5453 167.468 27.6613 168.363 24.8508H165.553C164.904 26.1171 163.36 27.1054 161.383 27.1054C158.635 27.1054 156.534 25.4994 156.071 22.658ZM156.071 20.2799C156.504 17.6238 158.418 15.8325 161.291 15.8325C163.607 15.8325 165.738 17.2532 166.14 20.2799H156.071Z" fill="#383839"/>
<path d="M179 13.7015H175.973V8.75998H173.286V13.7015H170.229V16.2958H173.286V29.1438H175.973V16.2958H179V13.7015Z" fill="#383839"/>
<path fill-rule="evenodd" clip-rule="evenodd" d="M33.6507 6.26836C29.6512 6.15957 26.1528 6.23784 22.3327 7.95224V25.2623C26.3273 27.5925 28.3332 27.6396 33.6508 27.5925L48.9635 27.5925V22.5629V19.3438V6.28783H33.6507V6.26836ZM33.72 29.9221C33.9146 29.9253 34.1128 29.9259 34.3165 29.9227L34.3147 29.9164L51.2732 29.7543V29.8014C51.2732 32.437 53.3111 34.5831 55.8137 34.5831C58.2997 34.5831 60.2721 32.5565 60.2982 29.9462C60.3091 30.2514 60.5463 30.2421 60.8313 30.2309C60.8869 30.2288 60.9443 30.2265 61.0022 30.2265H63.2944C63.6877 30.2265 64.2931 29.3091 64.2931 28.895V20.9439C64.2931 18.9484 63.4186 16.5371 61.6131 16.2453C61.2802 9.2838 59.6158 7.61937 56.9527 7.32357H51.1749V5.66691C51.1749 4.81034 50.5134 4.10438 49.6911 4.10438L33.6507 4.16796V4.19212C33.1684 4.18503 32.7185 4.17135 32.2872 4.15823C31.1331 4.12314 30.1132 4.09213 28.9671 4.20252C26.8311 2.11102 24.0785 0.961639 21.1472 0.961639C18.189 0.961639 15.3739 2.14871 13.229 4.30616C12.7017 4.83374 12.943 6.18097 14.1048 5.96429C14.2174 5.94333 14.3295 5.9214 14.4409 5.89959L14.441 5.89958C14.9309 5.80369 15.4101 5.70991 15.8833 5.70991C17.3311 5.70991 19.1735 6.42914 20.3353 7.28647C20.2638 7.42779 20.3353 7.61935 20.3353 7.61935V12.2601C19.3689 11.8576 18.2774 11.6517 17.1608 11.6517C13.5949 11.6517 8.89098 16.1062 8.69709 16.2949C8.47791 16.5025 8.35146 16.8045 8.35146 17.1254C8.35146 17.4179 8.45262 17.6916 8.63808 17.8992C8.65494 17.9181 8.6718 17.937 8.69709 17.9559C8.89098 18.1446 13.5949 22.599 17.1608 22.599C18.2774 22.599 19.3606 22.3837 20.3353 21.9905V25.9281C20.3353 25.9281 20.2003 26.3985 19.9317 26.5967C18.7699 27.454 16.1961 28.0193 15.7045 28.0664C15.6455 28.0731 15.5883 28.0798 15.5326 28.0863L15.5326 28.0863L15.5325 28.0863C15.0397 28.1441 14.6588 28.1887 14.1048 28.1041C12.8179 27.9062 12.7732 29.3194 13.229 29.7622C15.3828 31.9102 18.189 33.1067 21.1472 33.1067C24.0785 33.0973 26.8401 31.9573 28.9671 29.8658C30.3028 29.7571 31.3302 29.8119 32.3318 29.8653H32.3319H32.3319H32.3319H32.3319H32.3319C32.7686 29.8886 33.2004 29.9117 33.6507 29.9208V29.9227L33.72 29.9221ZM16.3301 3.73147C17.7869 3.02488 19.3866 2.65745 21.031 2.65745C23.2563 2.65745 25.0284 3.01546 26.8515 4.2779C26.7711 4.28732 22.3919 5.49323 21.2659 5.96429C19.7645 4.57937 18.2963 4.02352 16.3301 3.73147ZM26.3273 28.924C24.9957 30.2556 23.3202 31.2542 21.6669 31.2542C19.4416 31.2542 17.5277 30.8522 15.7045 29.5898C16.9557 29.5898 21.2066 28.0541 22.3327 27.5925C24.2051 28.4081 24.8315 28.56 25.83 28.8021C25.9848 28.8396 26.1485 28.8794 26.3273 28.924ZM9.22768 11.5261C9.73709 11.5261 10.1571 11.8652 10.1571 12.2986C10.1571 12.7225 9.74602 13.0711 9.22768 13.0711H4.55361C4.04419 13.0711 3.62415 12.7225 3.62415 12.2986C3.62415 11.8746 4.03526 11.5261 4.55361 11.5261H9.22768ZM12.4987 22.3981C12.4987 22.1908 12.3915 22.0024 12.2217 21.8611L12.2127 21.8517C12.1055 21.7669 11.9625 21.7009 11.8016 21.6633C11.7212 21.6444 11.6408 21.635 11.5514 21.635H2.2122C2.14071 21.635 2.06923 21.6444 1.99775 21.6538L1.99771 21.6538C1.5866 21.7292 1.28274 22.0307 1.28274 22.3793C1.28274 22.7278 1.5866 23.0293 1.99771 23.1047C2.06919 23.1235 2.14068 23.1235 2.21217 23.1235H2.2122H11.5693C11.6586 23.1235 11.7391 23.1141 11.8195 23.0953C12.2127 23.0293 12.4987 22.7373 12.4987 22.3981ZM5.9657 16.0576C6.47511 16.0576 6.89515 16.425 6.89515 16.8961C6.89515 17.3671 6.48405 17.744 5.9657 17.7346H1.29163C0.782222 17.7346 0.362183 17.3577 0.362183 16.8961C0.362183 16.4345 0.773285 16.0576 1.29163 16.0576H5.9657ZM20.1198 19.7006C19.1925 20.2197 18.0713 20.3664 16.8995 20.3664C14.8173 20.3664 12.3578 18.7297 10.5875 17.1254C12.3578 15.521 14.8173 14.0299 16.8995 14.0299C18.0713 14.0299 19.1925 14.1788 20.1198 14.7073V19.7006ZM50.9777 9.25472L56.6198 9.2838C58.9152 9.61668 59.2829 13.6113 59.2829 16.2453H50.9777V9.25472ZM62.2958 28.2389H60.296C59.6793 26.3657 57.798 25.0197 55.8137 25.0197C53.8295 25.0197 52.1402 26.3657 51.5234 28.2389H51.1749V18.4778H58.9152C59.952 18.4778 61.6771 19.2026 61.981 20.1909H60.296C59.9028 20.1909 58.9152 20.1909 58.9152 20.9439V22.5535C58.9152 23.8619 60.591 24.9161 61.8244 24.9161H62.2958V28.2389ZM61.981 23.2359H61.63C61.1831 23.2359 60.6314 23.0242 60.6314 22.5535V21.5715H61.981V23.2359ZM58.6171 29.5898C58.6171 31.0606 57.7778 32.5858 55.954 32.5858C54.1301 32.5858 52.958 31.5871 52.958 29.5898C52.958 28.119 53.9567 26.9267 55.6211 26.9267C57.6184 26.9267 58.6171 28.119 58.6171 29.5898Z" fill="#383839"/>
</svg>
