<?xml version="1.0" encoding="UTF-8" standalone="no"?>
<!DOCTYPE svg PUBLIC "-//W3C//DTD SVG 1.1//EN" "http://www.w3.org/Graphics/SVG/1.1/DTD/svg11.dtd">
<svg version="1.1" xmlns="http://www.w3.org/2000/svg" xmlns:xlink="http://www.w3.org/1999/xlink" preserveAspectRatio="xMidYMid meet" viewBox="0 0 300 249" width="300" height="249"><defs><path d="M47.92 32.75C56.98 32.75 64.34 40.1 64.34 49.16C64.34 58.22 56.98 65.58 47.92 65.58C38.86 65.58 31.51 58.22 31.51 49.16C31.51 40.1 38.86 32.75 47.92 32.75Z" id="d26qFC27Zn"></path><path d="M47.92 32.75C56.98 32.75 64.34 40.1 64.34 49.16C64.34 58.22 56.98 65.58 47.92 65.58C38.86 65.58 31.51 58.22 31.51 49.16C31.51 40.1 38.86 32.75 47.92 32.75Z" id="d1cJYqfHoC"></path><path d="M47.92 32.75C56.98 32.75 64.34 40.1 64.34 49.16C64.34 58.22 56.98 65.58 47.92 65.58C38.86 65.58 31.51 58.22 31.51 49.16C31.51 40.1 38.86 32.75 47.92 32.75Z" id="cI1nEMQBt"></path><path d="M47.92 32.75C56.98 32.75 64.34 40.1 64.34 49.16C64.34 58.22 56.98 65.58 47.92 65.58C38.86 65.58 31.51 58.22 31.51 49.16C31.51 40.1 38.86 32.75 47.92 32.75Z" id="b89FhXOJY6"></path><path d="M196.44 39.86C206.99 39.86 215.56 48.43 215.56 58.98C215.56 69.53 206.99 78.1 196.44 78.1C185.89 78.1 177.32 69.53 177.32 58.98C177.32 48.43 185.89 39.86 196.44 39.86Z" id="a13EMLuEo"></path><path d="M196.44 39.86C206.99 39.86 215.56 48.43 215.56 58.98C215.56 69.53 206.99 78.1 196.44 78.1C185.89 78.1 177.32 69.53 177.32 58.98C177.32 48.43 185.89 39.86 196.44 39.86Z" id="bwJpnPg8f"></path><path d="M196.44 39.86C206.99 39.86 215.56 48.43 215.56 58.98C215.56 69.53 206.99 78.1 196.44 78.1C185.89 78.1 177.32 69.53 177.32 58.98C177.32 48.43 185.89 39.86 196.44 39.86Z" id="a3r4KEMzAk"></path><path d="M196.44 39.86C206.99 39.86 215.56 48.43 215.56 58.98C215.56 69.53 206.99 78.1 196.44 78.1C185.89 78.1 177.32 69.53 177.32 58.98C177.32 48.43 185.89 39.86 196.44 39.86Z" id="c7CzLaFkhg"></path><path d="M222.67 20.23C235.36 20.23 245.67 30.53 245.67 43.22C245.67 55.91 235.36 66.21 222.67 66.21C209.98 66.21 199.68 55.91 199.68 43.22C199.68 30.53 209.98 20.23 222.67 20.23Z" id="a1a1uLlag6"></path><path d="M222.67 20.23C235.36 20.23 245.67 30.53 245.67 43.22C245.67 55.91 235.36 66.21 222.67 66.21C209.98 66.21 199.68 55.91 199.68 43.22C199.68 30.53 209.98 20.23 222.67 20.23Z" id="h3amMdQpm6"></path><path d="M222.67 20.23C235.36 20.23 245.67 30.53 245.67 43.22C245.67 55.91 235.36 66.21 222.67 66.21C209.98 66.21 199.68 55.91 199.68 43.22C199.68 30.53 209.98 20.23 222.67 20.23Z" id="aqY3CJPDu"></path><path d="M222.67 20.23C235.36 20.23 245.67 30.53 245.67 43.22C245.67 55.91 235.36 66.21 222.67 66.21C209.98 66.21 199.68 55.91 199.68 43.22C199.68 30.53 209.98 20.23 222.67 20.23Z" id="g5m1AKfWm"></path><path d="M248.74 49.16C256.72 49.16 263.2 55.64 263.2 63.63C263.2 71.61 256.72 78.1 248.74 78.1C240.75 78.1 234.27 71.61 234.27 63.63C234.27 55.64 240.75 49.16 248.74 49.16Z" id="a85IbPOFNT"></path><path d="M248.74 49.16C256.72 49.16 263.2 55.64 263.2 63.63C263.2 71.61 256.72 78.1 248.74 78.1C240.75 78.1 234.27 71.61 234.27 63.63C234.27 55.64 240.75 49.16 248.74 49.16Z" id="f5hmkLL60"></path><path d="M248.74 49.16C256.72 49.16 263.2 55.64 263.2 63.63C263.2 71.61 256.72 78.1 248.74 78.1C240.75 78.1 234.27 71.61 234.27 63.63C234.27 55.64 240.75 49.16 248.74 49.16Z" id="b1P5jpBQvC"></path><path d="M248.74 49.16C256.72 49.16 263.2 55.64 263.2 63.63C263.2 71.61 256.72 78.1 248.74 78.1C240.75 78.1 234.27 71.61 234.27 63.63C234.27 55.64 240.75 49.16 248.74 49.16Z" id="a1A7fAyRYQ"></path><path d="M196.44 78.1L196.44 58.98L248.74 58.98L248.74 78.1L196.44 78.1Z" id="a1bCq2xYuG"></path><path d="M196.44 78.1L196.44 58.98L248.74 58.98L248.74 78.1L196.44 78.1Z" id="e2bt8WgwAa"></path><path d="M196.44 78.1L196.44 58.98L248.74 58.98L248.74 78.1L196.44 78.1Z" id="h10nxJE44w"></path><path d="M196.44 78.1L196.44 58.98L248.74 58.98L248.74 78.1L196.44 78.1Z" id="agIiPhMCH"></path><path d="M84.44 329.7L-0.85 244.41L84.44 159.12L169.73 244.41L84.44 329.7Z" id="jffacYaEz"></path><path d="M215.56 371.45L95.22 251.11L215.56 130.77L335.9 251.11L215.56 371.45Z" id="e4LBBEkT4e"></path><path d="M96.67 206.86L109.1 219.77L59.78 219.77L72.54 206.86L84.69 219.77L96.67 206.86Z" id="i61VAwr2QN"></path><path d="M96.67 206.86L109.1 219.77L59.78 219.77L72.54 206.86L84.69 219.77L96.67 206.86Z" id="arTHsvfeg"></path><path d="M96.67 206.86L109.1 219.77L59.78 219.77L72.54 206.86L84.69 219.77L96.67 206.86Z" id="abfOpXWKR"></path><path d="M96.67 206.86L109.1 219.77L59.78 219.77L72.54 206.86L84.69 219.77L96.67 206.86Z" id="d3D6HROS0r"></path><path d="M228.53 181.37L241.71 195.06L189.41 195.06L202.95 181.37L215.82 195.06L228.53 181.37Z" id="b4iMUfZaL"></path><path d="M228.53 181.37L241.71 195.06L189.41 195.06L202.95 181.37L215.82 195.06L228.53 181.37Z" id="b1KsL1YTNA"></path><path d="M228.53 181.37L241.71 195.06L189.41 195.06L202.95 181.37L215.82 195.06L228.53 181.37Z" id="b6JoMKTsB"></path><path d="M228.53 181.37L241.71 195.06L189.41 195.06L202.95 181.37L215.82 195.06L228.53 181.37Z" id="a47U2u2YKB"></path><path d="M335.9 251.11L256.52 176L234.27 198.1L196.44 198.1L173.47 176L95.22 251.11L335.9 251.11Z" id="b1fieYaYed"></path><path d="M335.9 251.11L256.52 176L234.27 198.1L196.44 198.1L173.47 176L95.22 251.11L335.9 251.11Z" id="b7vfoPTxx"></path><path d="M204.78 275.24L125.4 200.13L103.15 222.23L65.32 222.23L42.35 200.13L-35.9 275.24L204.78 275.24Z" id="bRoNGRjfD"></path><path d="M204.78 275.24L125.4 200.13L103.15 222.23L65.32 222.23L42.35 200.13L-35.9 275.24L204.78 275.24Z" id="aOgpJzHwh"></path></defs><g><g><g><use xlink:href="#d26qFC27Zn" opacity="1" fill="#000000" fill-opacity="1"></use><g><use xlink:href="#d26qFC27Zn" opacity="1" fill-opacity="0" stroke="#000000" stroke-width="1" stroke-opacity="0"></use></g></g><g><use xlink:href="#d1cJYqfHoC" opacity="1" fill="#000000" fill-opacity="0"></use><g><use xlink:href="#d1cJYqfHoC" opacity="1" fill-opacity="0" stroke="#000000" stroke-width="1" stroke-opacity="1"></use></g></g><g><use xlink:href="#cI1nEMQBt" opacity="1" fill="#000000" fill-opacity="1"></use><g><use xlink:href="#cI1nEMQBt" opacity="1" fill-opacity="0" stroke="#000000" stroke-width="1" stroke-opacity="0"></use></g></g><g><use xlink:href="#b89FhXOJY6" opacity="1" fill="#000000" fill-opacity="0"></use><g><use xlink:href="#b89FhXOJY6" opacity="1" fill-opacity="0" stroke="#000000" stroke-width="1" stroke-opacity="1"></use></g></g><g><use xlink:href="#a13EMLuEo" opacity="1" fill="#000000" fill-opacity="1"></use><g><use xlink:href="#a13EMLuEo" opacity="1" fill-opacity="0" stroke="#000000" stroke-width="1" stroke-opacity="0"></use></g></g><g><use xlink:href="#bwJpnPg8f" opacity="1" fill="#000000" fill-opacity="0"></use><g><use xlink:href="#bwJpnPg8f" opacity="1" fill-opacity="0" stroke="#000000" stroke-width="1" stroke-opacity="1"></use></g></g><g><use xlink:href="#a3r4KEMzAk" opacity="1" fill="#000000" fill-opacity="1"></use><g><use xlink:href="#a3r4KEMzAk" opacity="1" fill-opacity="0" stroke="#000000" stroke-width="1" stroke-opacity="0"></use></g></g><g><use xlink:href="#c7CzLaFkhg" opacity="1" fill="#000000" fill-opacity="0"></use><g><use xlink:href="#c7CzLaFkhg" opacity="1" fill-opacity="0" stroke="#000000" stroke-width="1" stroke-opacity="1"></use></g></g><g><use xlink:href="#a1a1uLlag6" opacity="1" fill="#000000" fill-opacity="1"></use><g><use xlink:href="#a1a1uLlag6" opacity="1" fill-opacity="0" stroke="#000000" stroke-width="1" stroke-opacity="0"></use></g></g><g><use xlink:href="#h3amMdQpm6" opacity="1" fill="#000000" fill-opacity="0"></use><g><use xlink:href="#h3amMdQpm6" opacity="1" fill-opacity="0" stroke="#000000" stroke-width="1" stroke-opacity="1"></use></g></g><g><use xlink:href="#aqY3CJPDu" opacity="1" fill="#000000" fill-opacity="1"></use><g><use xlink:href="#aqY3CJPDu" opacity="1" fill-opacity="0" stroke="#000000" stroke-width="1" stroke-opacity="0"></use></g></g><g><use xlink:href="#g5m1AKfWm" opacity="1" fill="#000000" fill-opacity="0"></use><g><use xlink:href="#g5m1AKfWm" opacity="1" fill-opacity="0" stroke="#000000" stroke-width="1" stroke-opacity="1"></use></g></g><g><use xlink:href="#a85IbPOFNT" opacity="1" fill="#000000" fill-opacity="1"></use><g><use xlink:href="#a85IbPOFNT" opacity="1" fill-opacity="0" stroke="#000000" stroke-width="1" stroke-opacity="0"></use></g></g><g><use xlink:href="#f5hmkLL60" opacity="1" fill="#000000" fill-opacity="0"></use><g><use xlink:href="#f5hmkLL60" opacity="1" fill-opacity="0" stroke="#000000" stroke-width="1" stroke-opacity="1"></use></g></g><g><use xlink:href="#b1P5jpBQvC" opacity="1" fill="#000000" fill-opacity="1"></use><g><use xlink:href="#b1P5jpBQvC" opacity="1" fill-opacity="0" stroke="#000000" stroke-width="1" stroke-opacity="0"></use></g></g><g><use xlink:href="#a1A7fAyRYQ" opacity="1" fill="#000000" fill-opacity="0"></use><g><use xlink:href="#a1A7fAyRYQ" opacity="1" fill-opacity="0" stroke="#000000" stroke-width="1" stroke-opacity="1"></use></g></g><g><use xlink:href="#a1bCq2xYuG" opacity="1" fill="#000000" fill-opacity="1"></use><g><use xlink:href="#a1bCq2xYuG" opacity="1" fill-opacity="0" stroke="#000000" stroke-width="1" stroke-opacity="0"></use></g></g><g><use xlink:href="#e2bt8WgwAa" opacity="1" fill="#000000" fill-opacity="0"></use><g><use xlink:href="#e2bt8WgwAa" opacity="1" fill-opacity="0" stroke="#000000" stroke-width="1" stroke-opacity="1"></use></g></g><g><use xlink:href="#h10nxJE44w" opacity="1" fill="#000000" fill-opacity="1"></use><g><use xlink:href="#h10nxJE44w" opacity="1" fill-opacity="0" stroke="#000000" stroke-width="1" stroke-opacity="0"></use></g></g><g><use xlink:href="#agIiPhMCH" opacity="1" fill="#000000" fill-opacity="0"></use><g><use xlink:href="#agIiPhMCH" opacity="1" fill-opacity="0" stroke="#000000" stroke-width="1" stroke-opacity="1"></use></g></g><g><use xlink:href="#jffacYaEz" opacity="1" fill="#000000" fill-opacity="0"></use><g><use xlink:href="#jffacYaEz" opacity="1" fill-opacity="0" stroke="#000000" stroke-width="10" stroke-opacity="1"></use></g></g><g><use xlink:href="#e4LBBEkT4e" opacity="1" fill="#000000" fill-opacity="0"></use><g><use xlink:href="#e4LBBEkT4e" opacity="1" fill-opacity="0" stroke="#000000" stroke-width="10" stroke-opacity="1"></use></g></g><g><use xlink:href="#i61VAwr2QN" opacity="1" fill="#000000" fill-opacity="1"></use><g><use xlink:href="#i61VAwr2QN" opacity="1" fill-opacity="0" stroke="#000000" stroke-width="1" stroke-opacity="0"></use></g></g><g><use xlink:href="#arTHsvfeg" opacity="1" fill="#000000" fill-opacity="0"></use><g><use xlink:href="#arTHsvfeg" opacity="1" fill-opacity="0" stroke="#000000" stroke-width="1" stroke-opacity="1"></use></g></g><g><use xlink:href="#abfOpXWKR" opacity="1" fill="#000000" fill-opacity="1"></use><g><use xlink:href="#abfOpXWKR" opacity="1" fill-opacity="0" stroke="#000000" stroke-width="1" stroke-opacity="0"></use></g></g><g><use xlink:href="#d3D6HROS0r" opacity="1" fill="#000000" fill-opacity="0"></use><g><use xlink:href="#d3D6HROS0r" opacity="1" fill-opacity="0" stroke="#000000" stroke-width="10" stroke-opacity="1"></use></g></g><g><use xlink:href="#b4iMUfZaL" opacity="1" fill="#000000" fill-opacity="1"></use><g><use xlink:href="#b4iMUfZaL" opacity="1" fill-opacity="0" stroke="#000000" stroke-width="1" stroke-opacity="0"></use></g></g><g><use xlink:href="#b1KsL1YTNA" opacity="1" fill="#000000" fill-opacity="0"></use><g><use xlink:href="#b1KsL1YTNA" opacity="1" fill-opacity="0" stroke="#000000" stroke-width="1" stroke-opacity="1"></use></g></g><g><use xlink:href="#b6JoMKTsB" opacity="1" fill="#000000" fill-opacity="1"></use><g><use xlink:href="#b6JoMKTsB" opacity="1" fill-opacity="0" stroke="#000000" stroke-width="1" stroke-opacity="0"></use></g></g><g><use xlink:href="#a47U2u2YKB" opacity="1" fill="#000000" fill-opacity="0"></use><g><use xlink:href="#a47U2u2YKB" opacity="1" fill-opacity="0" stroke="#000000" stroke-width="10" stroke-opacity="1"></use></g></g><g><use xlink:href="#b1fieYaYed" opacity="1" fill="#000000" fill-opacity="1"></use><g><use xlink:href="#b1fieYaYed" opacity="1" fill-opacity="0" stroke="#000000" stroke-width="1" stroke-opacity="0"></use></g></g><g><use xlink:href="#b7vfoPTxx" opacity="1" fill="#000000" fill-opacity="0"></use><g><use xlink:href="#b7vfoPTxx" opacity="1" fill-opacity="0" stroke="#000000" stroke-width="1" stroke-opacity="1"></use></g></g><g><use xlink:href="#bRoNGRjfD" opacity="1" fill="#000000" fill-opacity="1"></use><g><use xlink:href="#bRoNGRjfD" opacity="1" fill-opacity="0" stroke="#000000" stroke-width="1" stroke-opacity="0"></use></g></g><g><use xlink:href="#aOgpJzHwh" opacity="1" fill="#000000" fill-opacity="0"></use><g><use xlink:href="#aOgpJzHwh" opacity="1" fill-opacity="0" stroke="#000000" stroke-width="1" stroke-opacity="1"></use></g></g></g></g></svg>