<?xml version="1.0" encoding="UTF-8" standalone="no"?>
<!DOCTYPE svg PUBLIC "-//W3C//DTD SVG 1.1//EN" "http://www.w3.org/Graphics/SVG/1.1/DTD/svg11.dtd">
<svg version="1.1" xmlns="http://www.w3.org/2000/svg" xmlns:xlink="http://www.w3.org/1999/xlink" preserveAspectRatio="xMidYMid meet" viewBox="0 0 300 249" width="300" height="249"><defs><path d="M215.39 162.27L215.39 66.39L150 54.83L84.61 66.39L84.61 162.27L150 175.92L215.39 162.27Z" id="a4KM2Vm5k"></path><path d="M194.85 102.61L194.85 111.54L105.15 111.54L105.15 102.61L194.85 102.61Z" id="bMGGvK0zx"></path><path d="M314.15 335.17L150 499.32L-14.15 335.17L150 200.18L314.15 335.17Z" id="b30Qv8RC6"></path><path d="M141.64 148.2L171.16 153.28L169.65 162.08L140.13 157L141.64 148.2Z" id="d1GABwlZ6r"></path><path d="M31.69 89.01L128.81 -2.72L175.16 46.35L78.05 138.09L31.69 89.01Z" id="b5bvDcNQoc"></path><path d="M189.22 10.22L242.85 63.17L209.27 97.17L155.65 44.22L189.22 10.22Z" id="bKkLvkn8G"></path><path d="M50.17 155.14L180.82 183.04L102.05 238.6L38.75 208.66L50.17 155.14Z" id="i17IxGDU"></path><path d="M31.7 87.35L110.28 87.35L110.27 218.07L31.69 218.06L31.7 87.35Z" id="ahn58p9MY"></path><path d="M150 177.73L240.22 159.92L240.22 206.06L155.59 206.06L150 177.73Z" id="c1Is3iouf"></path><path d="M202.8 62.78L242.85 62.78L242.84 206.07L202.8 206.06L202.8 62.78Z" id="bq9X5wNuv"></path></defs><g><g><g><use xlink:href="#a4KM2Vm5k" opacity="1" fill="#000000" fill-opacity="0"></use><g><use xlink:href="#a4KM2Vm5k" opacity="1" fill-opacity="0" stroke="#000000" stroke-width="7" stroke-opacity="1"></use></g></g><g><use xlink:href="#bMGGvK0zx" opacity="1" fill="#000000" fill-opacity="1"></use><g><use xlink:href="#bMGGvK0zx" opacity="1" fill-opacity="0" stroke="#000000" stroke-width="1" stroke-opacity="0"></use></g></g><g><use xlink:href="#b30Qv8RC6" opacity="1" fill="#000000" fill-opacity="0"></use><g><use xlink:href="#b30Qv8RC6" opacity="1" fill-opacity="0" stroke="#000000" stroke-width="7" stroke-opacity="1"></use></g></g><g><use xlink:href="#d1GABwlZ6r" opacity="1" fill="#000000" fill-opacity="1"></use></g><g><use xlink:href="#b5bvDcNQoc" opacity="1" fill="#000000" fill-opacity="1"></use></g><g><use xlink:href="#bKkLvkn8G" opacity="1" fill="#000000" fill-opacity="1"></use></g><g><use xlink:href="#i17IxGDU" opacity="1" fill="#000000" fill-opacity="1"></use></g><g><use xlink:href="#ahn58p9MY" opacity="1" fill="#000000" fill-opacity="1"></use></g><g><use xlink:href="#c1Is3iouf" opacity="1" fill="#000000" fill-opacity="1"></use></g><g><use xlink:href="#bq9X5wNuv" opacity="1" fill="#000000" fill-opacity="1"></use></g></g></g></svg>