<?xml version="1.0" encoding="UTF-8" standalone="no"?>
<!DOCTYPE svg PUBLIC "-//W3C//DTD SVG 1.1//EN" "http://www.w3.org/Graphics/SVG/1.1/DTD/svg11.dtd">
<svg version="1.1" xmlns="http://www.w3.org/2000/svg" xmlns:xlink="http://www.w3.org/1999/xlink" preserveAspectRatio="xMidYMid meet" viewBox="0 0 300 249" width="300" height="249"><defs><path d="M114 124.5C114 104.63 130.13 88.5 150 88.5C169.87 88.5 186 104.63 186 124.5C186 144.37 169.87 160.5 150 160.5C130.13 160.5 114 144.37 114 124.5Z" id="mlfRKK39L"></path><path d="M114 124.5C114 104.63 130.13 88.5 150 88.5C169.87 88.5 186 104.63 186 124.5C186 144.37 169.87 160.5 150 160.5C130.13 160.5 114 144.37 114 124.5Z" id="b3KhqwaWjm"></path><path d="M143.97 117.27L143.97 131.73L156.03 124.5L143.97 117.27Z" id="amPYVFsUf"></path><path d="M143.97 117.27L143.97 131.73L156.03 124.5L143.97 117.27Z" id="a5z72BqYKC"></path></defs><g><g><g><use xlink:href="#mlfRKK39L" opacity="1" fill="#000000" fill-opacity="0"></use><g><use xlink:href="#mlfRKK39L" opacity="1" fill-opacity="0" stroke="#000000" stroke-width="1" stroke-opacity="0"></use></g></g><g><g><use xlink:href="#b3KhqwaWjm" opacity="1" fill-opacity="0" stroke="#000000" stroke-width="5" stroke-opacity="1"></use></g></g><g><use xlink:href="#amPYVFsUf" opacity="1" fill="#000000" fill-opacity="0"></use><g><use xlink:href="#amPYVFsUf" opacity="1" fill-opacity="0" stroke="#000000" stroke-width="1" stroke-opacity="0"></use></g></g><g><use xlink:href="#a5z72BqYKC" opacity="1" fill="#000000" fill-opacity="1"></use><g><use xlink:href="#a5z72BqYKC" opacity="1" fill-opacity="0" stroke="#000000" stroke-width="12" stroke-opacity="1"></use></g></g></g></g></svg>