<?xml version="1.0" encoding="UTF-8" standalone="no"?>
<!DOCTYPE svg PUBLIC "-//W3C//DTD SVG 1.1//EN" "http://www.w3.org/Graphics/SVG/1.1/DTD/svg11.dtd">
<svg version="1.1" xmlns="http://www.w3.org/2000/svg" xmlns:xlink="http://www.w3.org/1999/xlink" preserveAspectRatio="xMidYMid meet" viewBox="0 0 300 249" width="300" height="249"><defs><path d="M206.55 161.59L206.55 65.71L150 54.15L93.45 65.71L93.45 161.59L150 201.77L206.55 161.59Z" id="d3PN2h64R3"></path><path d="M188.39 99.92L188.39 108.85L111.61 108.85L111.61 99.92L188.39 99.92Z" id="brA2bc9"></path><path d="M314.15 310.51L150 474.66L-14.15 310.51L150 175.52L314.15 310.51Z" id="b1ec1eOXb6"></path><path d="M150 150.35L179.51 169.84L150 199.35L120.49 169.84L150 150.35Z" id="c2vXFCULPX"></path><path d="M90.53 69.17L165.7 53.52L169.98 74.05L94.81 89.7L90.53 69.17Z" id="f1mx9JfOD"></path><path d="M174.51 58.69L207.8 66.04L204.29 81.95L170.99 74.59L174.51 58.69Z" id="dbrpFFaA8"></path></defs><g><g><g><use xlink:href="#d3PN2h64R3" opacity="1" fill="#000000" fill-opacity="0"></use><g><use xlink:href="#d3PN2h64R3" opacity="1" fill-opacity="0" stroke="#000000" stroke-width="7" stroke-opacity="1"></use></g></g><g><use xlink:href="#brA2bc9" opacity="1" fill="#000000" fill-opacity="1"></use><g><use xlink:href="#brA2bc9" opacity="1" fill-opacity="0" stroke="#000000" stroke-width="1" stroke-opacity="0"></use></g></g><g><use xlink:href="#b1ec1eOXb6" opacity="1" fill="#000000" fill-opacity="0"></use><g><use xlink:href="#b1ec1eOXb6" opacity="1" fill-opacity="0" stroke="#000000" stroke-width="18" stroke-opacity="1"></use></g></g><g><g><use xlink:href="#c2vXFCULPX" opacity="1" fill-opacity="0" stroke="#000000" stroke-width="17" stroke-opacity="1"></use></g></g><g><use xlink:href="#f1mx9JfOD" opacity="1" fill="#000000" fill-opacity="1"></use></g><g><use xlink:href="#dbrpFFaA8" opacity="1" fill="#000000" fill-opacity="1"></use></g></g></g></svg>