<?xml version="1.0" encoding="UTF-8" standalone="no"?>
<!DOCTYPE svg PUBLIC "-//W3C//DTD SVG 1.1//EN" "http://www.w3.org/Graphics/SVG/1.1/DTD/svg11.dtd">
<svg version="1.1" xmlns="http://www.w3.org/2000/svg" xmlns:xlink="http://www.w3.org/1999/xlink" preserveAspectRatio="xMidYMid meet" viewBox="0 0 300 249" width="300" height="249"><defs><path d="M231.92 146.59L150 203.88L68.08 146.59L75.52 53.88L224.48 53.88L231.92 146.59Z" id="c5HlbncTc"></path><path d="M98.23 21.25L104.05 54.25L73.9 59.56L68.08 26.57L98.23 21.25Z" id="a6K7zNDNuI"></path><path d="M195.95 54.25L201.77 21.25L231.92 26.57L226.1 59.56L195.95 54.25Z" id="c1VxWWOTuQ"></path><path d="M187.9 103.5L234.87 136.38L216.24 162.98L169.28 130.1L187.9 103.5Z" id="i4nwlJGMU"></path><path d="M112.39 103.67L160.48 134.89L149.25 152.18L101.16 120.96L112.39 103.67Z" id="agylqBrGh"></path><path d="M139.62 134.73L187.7 103.5L198.93 120.79L150.85 152.02L139.62 134.73Z" id="e1iegOVZpR"></path><path d="M150 169.78L167.86 187.64L150 205.5L132.14 187.64L150 169.78Z" id="b52rv2RB2"></path><path d="M65.23 136.55L112.19 103.67L130.82 130.27L83.85 163.15L65.23 136.55Z" id="c2DT2bSYXS"></path><path d="M205.65 163.15L332.86 290.36L325.2 298.01L198 170.81L205.65 163.15Z" id="a3fQf3cbbO"></path><path d="M-32.86 290.36L94.35 163.15L102 170.81L-25.2 298.01L-32.86 290.36Z" id="e3utml02K"></path></defs><g><g><g><g><use xlink:href="#c5HlbncTc" opacity="1" fill-opacity="0" stroke="#000000" stroke-width="8" stroke-opacity="1"></use></g></g><g><use xlink:href="#a6K7zNDNuI" opacity="1" fill="#000000" fill-opacity="1"></use><g><use xlink:href="#a6K7zNDNuI" opacity="1" fill-opacity="0" stroke="#000000" stroke-width="8" stroke-opacity="1"></use></g></g><g><use xlink:href="#c1VxWWOTuQ" opacity="1" fill="#000000" fill-opacity="1"></use><g><use xlink:href="#c1VxWWOTuQ" opacity="1" fill-opacity="0" stroke="#000000" stroke-width="8" stroke-opacity="1"></use></g></g><g><use xlink:href="#i4nwlJGMU" opacity="1" fill="#000000" fill-opacity="1"></use></g><g><use xlink:href="#agylqBrGh" opacity="1" fill="#000000" fill-opacity="1"></use></g><g><use xlink:href="#e1iegOVZpR" opacity="1" fill="#000000" fill-opacity="1"></use></g><g><use xlink:href="#b52rv2RB2" opacity="1" fill="#000000" fill-opacity="1"></use></g><g><use xlink:href="#c2DT2bSYXS" opacity="1" fill="#000000" fill-opacity="1"></use></g><g><use xlink:href="#a3fQf3cbbO" opacity="1" fill="#000000" fill-opacity="1"></use></g><g><use xlink:href="#e3utml02K" opacity="1" fill="#000000" fill-opacity="1"></use></g></g></g></svg>