<?xml version="1.0" encoding="UTF-8" standalone="no"?>
<!DOCTYPE svg PUBLIC "-//W3C//DTD SVG 1.1//EN" "http://www.w3.org/Graphics/SVG/1.1/DTD/svg11.dtd">
<svg version="1.1" xmlns="http://www.w3.org/2000/svg" xmlns:xlink="http://www.w3.org/1999/xlink" preserveAspectRatio="xMidYMid meet" viewBox="0 0 50 50" width="50" height="50"><defs><path d="M47.2 24.04C47.73 24.57 47.73 25.43 47.2 25.96C42.76 30.4 30.4 42.76 25.96 47.2C25.43 47.73 24.57 47.73 24.04 47.2C19.6 42.76 7.24 30.4 2.8 25.96C2.27 25.43 2.27 24.57 2.8 24.04C7.24 19.6 19.6 7.24 24.04 2.8C24.57 2.27 25.43 2.27 25.96 2.8C30.4 7.24 42.76 19.6 47.2 24.04Z" id="e8EExXHBtV"></path><path d="M40 25.09L24.9 40.01L10 25.09C13.82 20 18.95 19.35 25.39 23.14C31.83 26.93 36.7 27.58 40 25.09Z" id="bIe4xctXc"></path></defs><g><g><g><g><use xlink:href="#e8EExXHBtV" opacity="1" fill-opacity="0" stroke="#000000" stroke-width="5" stroke-opacity="1"></use></g></g><g><use xlink:href="#bIe4xctXc" opacity="1" fill="#000000" fill-opacity="1"></use></g></g></g></svg>